<?xml version="1.0" standalone="no"?>
<!DOCTYPE svg PUBLIC "-//W3C//DTD SVG 20010904//EN"
 "http://www.w3.org/TR/2001/REC-SVG-20010904/DTD/svg10.dtd">
<svg version="1.0" xmlns="http://www.w3.org/2000/svg"
 width="1921.000000pt" height="475.000000pt" viewBox="0 0 1921.000000 475.000000"
 preserveAspectRatio="xMidYMid meet">
<metadata>
Created by potrace 1.16, written by Peter Selinger 2001-2019
</metadata>
<g transform="translate(0.000000,475.000000) scale(0.100000,-0.100000)"
fill="#000000" stroke="none">
<path d="M14300 4724 c192 -31 320 -61 320 -75 0 -9 -27 -48 -188 -264 -57
-76 -70 -101 -58 -103 9 -2 14 -8 11 -13 -4 -5 5 -20 19 -34 25 -25 27 -25 56
-10 30 15 30 15 30 -10 0 -22 4 -25 33 -25 39 0 62 16 72 48 6 22 5 22 -47 16
l-53 -6 -20 39 c-17 32 -25 37 -48 35 -38 -5 -34 7 18 58 25 24 45 49 45 55 0
6 13 24 28 39 l29 27 14 -22 c19 -28 60 -19 52 11 -4 14 0 20 10 20 23 0 32
-21 13 -32 -31 -17 -15 -55 18 -42 10 4 16 18 16 40 0 35 5 40 29 25 22 -14
53 6 83 52 24 36 28 39 28 19 0 -28 -56 -144 -108 -222 -20 -30 -47 -72 -60
-92 -14 -21 -28 -38 -33 -38 -5 0 -16 -14 -24 -31 -19 -36 -84 -123 -95 -127
-5 -2 -22 4 -39 12 -16 9 -39 16 -50 16 -10 0 -21 4 -23 10 -1 5 -22 11 -45
12 -42 1 -51 11 -44 51 1 4 -7 3 -18 -3 -22 -11 -27 -24 -36 -100 -4 -30 -14
-63 -23 -73 -14 -16 -14 -21 1 -53 27 -56 19 -144 -13 -144 -36 0 -136 45
-173 77 -33 29 -44 33 -95 33 -59 0 -167 33 -344 106 -48 20 -94 34 -103 31
-11 -5 -15 -23 -15 -76 0 -66 2 -72 28 -88 15 -9 43 -31 62 -48 43 -37 269
-135 565 -244 61 -22 175 -68 255 -102 80 -33 165 -67 190 -74 80 -23 329
-111 337 -119 3 -3 -19 -16 -48 -29 -30 -14 -69 -36 -88 -50 l-34 -26 -31 23
c-85 65 -191 45 -236 -43 -14 -29 -29 -42 -57 -51 -64 -21 -133 -52 -133 -61
0 -19 24 -18 117 5 133 32 163 37 163 26 0 -6 -5 -10 -12 -10 -6 0 -41 -12
-77 -26 -36 -15 -86 -29 -111 -31 -100 -8 -112 -10 -127 -26 -9 -9 -18 -39
-21 -69 -3 -44 0 -58 18 -81 38 -48 114 -78 255 -102 l130 -22 7 -60 c7 -61
40 -143 58 -143 14 0 28 32 41 89 13 61 29 67 29 11 0 -22 -4 -40 -10 -40 -15
0 -12 -30 4 -36 7 -3 19 -24 25 -47 21 -72 35 -91 86 -119 99 -54 89 -54 215
-11 63 22 123 43 132 47 16 7 15 3 -4 -40 -29 -65 -28 -160 2 -209 23 -37 82
-69 148 -81 20 -4 53 -15 72 -24 l35 -18 -35 -32 c-67 -63 -67 -63 -171 -39
-100 22 -329 37 -394 25 -46 -9 -95 -53 -74 -67 12 -8 12 -10 0 -18 -8 -5 -18
-43 -24 -96 -9 -71 -9 -88 3 -95 11 -7 10 -11 -3 -25 -10 -9 -17 -32 -17 -51
0 -21 -5 -34 -13 -34 -18 0 -164 75 -262 135 -44 26 -129 73 -190 103 -184 91
-279 169 -351 287 -84 137 -205 379 -227 456 -14 46 -35 116 -47 154 -12 39
-26 88 -31 110 -20 81 -118 290 -136 290 -6 0 -15 3 -19 8 -4 4 -2 7 5 7 19 0
-66 154 -114 208 -53 59 -196 162 -281 202 -82 40 -198 68 -309 75 -169 12
-376 -32 -468 -98 -39 -29 -105 -130 -113 -175 -8 -43 14 -189 32 -216 9 -13
10 -24 4 -31 -7 -8 -6 -50 1 -121 10 -86 16 -112 30 -122 11 -7 19 -16 19 -20
0 -14 -46 -36 -100 -47 -87 -19 -260 -65 -325 -87 -116 -38 -182 -77 -264
-154 -115 -108 -123 -133 -125 -379 -1 -187 7 -263 23 -236 7 10 10 10 16 1 4
-7 2 -16 -5 -20 -19 -12 41 -90 105 -137 158 -117 337 -163 632 -162 173 0
291 17 508 74 117 31 181 46 230 53 54 9 190 -7 285 -32 58 -15 106 -22 233
-31 43 -4 97 -13 119 -21 22 -8 49 -14 59 -14 11 0 27 -4 37 -9 9 -5 44 -21
77 -36 122 -56 152 -71 245 -126 136 -81 211 -131 331 -224 58 -45 119 -91
135 -101 16 -9 40 -28 54 -40 14 -13 43 -30 65 -39 22 -9 51 -27 65 -40 40
-37 116 -75 150 -75 46 0 64 -12 191 -134 110 -106 161 -140 275 -187 25 -11
26 -13 9 -16 -98 -20 -157 -115 -174 -278 -10 -99 -1 -168 37 -272 l28 -78
149 -3 148 -3 -25 33 c-52 69 -60 94 -55 185 3 69 7 89 22 99 22 16 45 2 45
-27 0 -11 6 -19 14 -19 8 0 17 -9 21 -19 3 -11 14 -23 24 -26 11 -3 29 -21 42
-40 13 -19 32 -38 42 -41 31 -10 50 -61 39 -106 l-10 -39 61 3 62 3 13 40 c20
60 20 190 -1 252 -31 90 -123 198 -225 265 -78 51 -80 73 -6 73 28 -1 68 -6
90 -12 21 -6 62 -16 90 -22 50 -10 129 -43 189 -78 17 -10 56 -33 88 -52 32
-18 72 -45 89 -59 60 -51 195 -122 642 -336 l159 -76 149 0 c97 0 147 4 143
10 -3 6 1 10 9 10 8 0 18 -5 21 -10 4 -7 80 -10 212 -9 l205 1 -38 24 c-22 13
-42 24 -46 24 -8 0 -153 89 -232 143 -32 22 -102 62 -155 90 -53 27 -108 61
-123 75 l-27 25 22 29 c18 25 22 43 22 111 0 90 -10 123 -63 207 -101 163
-223 227 -353 185 -79 -25 -170 -78 -232 -135 -30 -28 -58 -50 -63 -50 -4 0
-40 15 -78 34 -39 19 -92 41 -118 50 -65 22 -192 30 -258 18 -170 -33 -258
-55 -286 -73 -17 -10 -38 -19 -45 -19 -8 0 -50 -14 -93 -30 -89 -34 -88 -35
-134 40 l-31 50 60 77 c151 196 169 221 169 235 0 8 -32 39 -70 69 -39 30 -93
71 -120 92 -47 36 -167 183 -158 193 5 4 35 -13 168 -92 25 -15 79 -45 120
-66 41 -22 127 -74 190 -116 179 -120 221 -139 234 -107 4 10 20 15 51 15 44
0 47 2 80 52 19 29 51 76 71 103 48 67 114 181 114 195 0 7 -15 30 -34 51 -21
25 -32 47 -29 59 3 10 0 43 -7 74 -21 101 -102 149 -294 170 -75 9 -144 23
-181 37 -85 34 -85 34 -72 68 9 24 18 30 51 35 75 12 123 43 148 94 20 42 23
62 22 172 0 133 -11 189 -47 228 -32 35 -104 63 -175 69 -56 5 -66 9 -88 38
-29 38 -30 56 -6 78 32 29 66 110 70 168 4 47 -1 65 -26 116 -33 67 -65 159
-60 172 2 5 23 0 48 -11 25 -11 61 -26 80 -35 19 -8 64 -23 100 -33 76 -21
214 -71 285 -105 79 -37 147 -63 185 -69 19 -4 85 -26 145 -50 61 -25 159 -61
219 -81 60 -21 122 -45 138 -55 16 -10 38 -15 49 -13 11 3 26 -3 36 -15 13
-15 35 -23 77 -27 33 -3 73 -12 90 -20 17 -8 55 -23 83 -33 29 -10 50 -22 47
-25 -4 -4 2 -10 12 -13 53 -19 52 -22 -22 -135 -46 -69 -53 -85 -31 -73 7 4 9
3 4 -2 -5 -5 -13 -9 -19 -9 -6 0 -18 -11 -27 -25 -15 -24 -15 -24 2 -11 9 7
17 9 17 4 0 -12 -45 -55 -51 -49 -3 3 -10 -4 -17 -14 -7 -12 -8 -20 -2 -20 5
0 10 5 10 12 0 6 3 8 7 5 3 -4 -8 -25 -25 -46 -18 -22 -32 -43 -32 -46 0 -10
-63 -85 -68 -81 -2 3 6 20 19 38 13 18 17 28 9 21 -20 -15 -56 -78 -40 -68 17
11 12 -1 -39 -77 -27 -41 -56 -72 -74 -79 -32 -14 -47 -43 -47 -96 0 -19 -11
-92 -25 -161 l-26 -125 27 -28 c25 -26 26 -30 15 -79 -17 -78 -15 -83 38 -112
33 -19 51 -36 55 -54 4 -15 19 -36 34 -48 48 -38 147 -96 165 -96 9 0 17 -4
17 -10 0 -5 6 -10 13 -10 7 0 28 -13 47 -30 19 -16 42 -29 50 -30 8 0 29 -9
45 -20 17 -11 40 -20 51 -20 13 0 24 -8 27 -19 3 -13 17 -22 41 -26 19 -4 35
-10 34 -14 -3 -24 6 -31 36 -31 19 0 37 -4 41 -9 3 -6 27 -20 53 -32 26 -12
58 -27 72 -34 14 -7 40 -16 58 -20 18 -4 36 -13 39 -21 3 -8 9 -14 14 -14 5 0
26 -7 47 -16 20 -10 46 -19 57 -21 24 -4 145 -53 161 -65 6 -5 44 -20 84 -34
39 -13 82 -31 93 -39 12 -7 42 -19 67 -25 25 -7 59 -19 77 -26 17 -8 51 -14
75 -14 82 0 81 1 116 -132 32 -120 81 -231 129 -295 l25 -33 184 0 c101 0 184
2 184 4 0 2 -14 31 -30 65 -33 65 -72 203 -91 316 -17 102 -13 490 6 562 8 31
19 61 25 67 5 5 10 16 10 24 0 8 14 31 30 52 17 21 30 40 30 43 0 3 12 19 26
34 36 39 49 64 29 57 -8 -4 -15 -3 -15 0 0 4 13 12 29 17 16 6 31 20 34 31 6
20 11 20 104 15 54 -4 110 -9 126 -13 l27 -6 0 99 0 100 -75 13 c-41 7 -75 17
-75 21 0 5 4 9 10 9 5 0 9 3 8 8 -3 11 37 83 61 111 11 13 18 28 15 32 -3 5 0
9 6 9 6 0 9 4 6 9 -3 5 5 16 19 25 l25 16 0 205 0 205 -55 27 c-69 34 -71 63
-4 63 16 0 18 3 9 19 -17 33 -11 52 20 64 l30 11 0 348 c0 213 -4 348 -9 348
-6 0 -36 -16 -68 -35 -32 -19 -63 -35 -70 -35 -21 0 -3 28 26 40 23 9 27 16
23 40 -3 22 2 32 22 45 15 10 37 15 51 13 l25 -5 0 338 0 339 -33 42 c-66 87
-159 201 -207 256 -27 31 -78 94 -112 138 -72 92 -244 306 -327 405 -31 37
-71 85 -89 108 -33 41 -33 41 -103 41 -80 0 -81 -4 -10 -77 23 -23 41 -50 41
-59 0 -9 -20 -52 -45 -96 -25 -44 -45 -84 -45 -89 0 -11 -7 -11 -50 1 -22 6
-46 7 -65 1 -16 -5 -42 -12 -57 -15 -39 -9 -36 -43 8 -86 19 -19 38 -47 41
-62 3 -15 9 -28 14 -28 5 0 4 -10 -1 -22 -5 -13 -14 -54 -19 -93 -11 -82 -27
-129 -41 -120 -5 3 -10 13 -10 21 0 25 -39 15 -54 -13 -20 -39 -56 -174 -56
-209 0 -31 -86 -185 -107 -192 -8 -2 -13 7 -13 25 0 15 -7 37 -15 47 -8 11
-15 39 -15 63 0 37 -4 44 -31 58 -36 19 -49 13 -25 -10 18 -18 21 -45 5 -45
-5 0 -17 16 -25 35 -18 43 -32 50 -81 38 -33 -8 -38 -12 -35 -36 2 -17 -2 -27
-10 -27 -7 0 -20 -4 -28 -10 -12 -7 -12 -12 5 -29 10 -12 16 -24 13 -27 -7 -6
-92 20 -218 66 -47 18 -98 35 -115 40 -51 13 -167 58 -177 68 -6 6 10 11 41
15 28 3 60 11 71 17 l21 11 -23 40 c-28 50 -50 63 -94 54 -28 -5 -34 -11 -34
-30 0 -14 -8 -29 -20 -35 -17 -9 -18 -14 -9 -31 21 -40 27 -41 -341 87 -58 20
-116 42 -130 49 -23 12 -22 13 35 25 33 7 63 14 67 17 9 5 -25 75 -44 91 -9 7
-29 9 -51 5 -31 -5 -37 -10 -37 -29 0 -13 -3 -24 -7 -24 -5 0 -14 -4 -22 -9
-10 -7 -11 -13 -1 -31 12 -23 12 -23 -29 -16 -23 3 -61 15 -84 25 -23 10 -64
25 -92 34 -27 9 -90 30 -140 47 -129 46 -145 63 -70 74 24 4 47 11 50 16 3 4
-5 27 -17 50 -21 39 -24 41 -63 38 -33 -2 -41 -7 -43 -25 -2 -12 -12 -25 -23
-28 -22 -7 -24 -16 -7 -33 22 -22 -1 -25 -59 -7 -32 10 -62 21 -68 25 -5 3
-30 12 -55 19 -25 7 -58 21 -75 31 -16 10 -46 21 -65 24 -45 9 -122 47 -128
64 -2 8 9 12 37 12 44 0 57 12 52 49 -3 23 -1 24 41 17 23 -4 54 -10 68 -13
43 -10 10 14 -55 41 -33 13 -59 28 -58 33 1 4 35 13 75 18 108 16 116 22 120
100 3 62 2 65 -19 65 -16 0 -25 -8 -29 -25 -4 -16 -16 -28 -31 -31 -30 -8 -53
10 -35 28 22 22 13 28 -39 28 -42 0 -52 -3 -56 -20 -5 -20 -14 -24 -76 -35
-33 -5 -41 -2 -68 24 -42 43 -85 42 -120 0 -29 -36 -54 -32 -46 7 4 23 2 24
-58 24 l-63 0 13 -43 c30 -100 83 -242 115 -308 19 -39 29 -48 78 -66 32 -12
82 -23 112 -26 30 -3 107 -21 170 -40 280 -86 347 -110 409 -150 57 -37 73
-42 131 -44 65 -2 118 -18 446 -131 61 -21 136 -53 167 -71 43 -25 75 -34 134
-41 43 -4 98 -15 123 -24 53 -20 375 -119 440 -136 60 -16 129 -60 136 -87 5
-20 -30 -146 -48 -169 -4 -6 -5 -13 -2 -17 3 -3 -8 -13 -25 -22 -17 -8 -31
-21 -31 -28 0 -7 -7 -22 -15 -33 -14 -18 -14 -17 -9 12 10 50 -17 68 -90 61
-34 -4 -78 -11 -99 -17 l-38 -11 23 -41 c13 -22 40 -54 61 -70 59 -47 61 -57
25 -135 -17 -37 -31 -71 -30 -75 1 -5 -7 -8 -18 -8 -12 0 -25 -10 -32 -25 -10
-23 -14 -24 -69 -18 -46 5 -70 1 -119 -17 -40 -15 -60 -28 -60 -39 1 -27 83
-134 123 -160 36 -24 49 -51 25 -51 -30 1 -312 110 -331 129 -29 27 -70 41
-118 41 -53 0 -585 189 -646 229 -33 22 -58 31 -88 31 -25 0 -119 27 -240 69
-307 106 -364 129 -403 161 -30 25 -46 30 -87 30 -50 0 -72 7 -450 143 -85 31
-153 62 -173 79 -28 24 -42 28 -90 28 -59 0 -122 27 -122 52 0 35 22 336 25
355 3 12 30 52 61 90 32 37 86 113 122 168 104 161 112 172 136 183 41 18 140
-14 151 -49 9 -27 -11 -45 -67 -60 -43 -11 -47 -25 -17 -63 30 -38 74 -58 120
-54 l39 3 32 -67 c30 -67 31 -68 13 -88 -18 -20 -18 -22 -1 -55 21 -39 74 -68
114 -63 23 3 27 7 24 30 -3 23 1 28 30 36 18 4 33 15 33 23 0 21 -110 62 -134
50 -20 -11 -41 3 -41 26 0 8 -14 41 -31 75 -33 65 -122 326 -135 392 l-7 39
32 -6 c24 -5 36 -2 51 13 11 11 20 24 20 30 0 5 16 8 36 7 22 -1 39 3 41 11 4
9 -94 12 -469 11 -437 -1 -466 -2 -388 -15z m4030 -560 c106 -158 86 -217 -48
-137 -81 48 -90 64 -60 104 23 30 68 79 74 79 1 0 16 -21 34 -46z m57 -334
c63 -9 84 -18 155 -66 46 -30 91 -65 101 -77 10 -12 58 -65 106 -117 131 -142
214 -240 208 -246 -3 -3 -49 9 -104 27 -54 17 -118 35 -143 40 -46 7 -285 90
-373 128 -40 17 -55 19 -90 11 -23 -5 -74 -10 -112 -10 -118 0 -176 48 -120
100 14 13 25 32 25 42 0 28 100 144 145 168 42 22 56 22 202 0z m-5532 -412
c71 -15 198 -74 280 -129 120 -81 284 -266 324 -366 7 -17 19 -34 28 -37 8 -3
12 -10 8 -16 -7 -11 21 -70 34 -70 5 0 9 -10 9 -22 0 -37 53 -140 74 -146 12
-3 17 -10 13 -20 -3 -8 2 -27 12 -41 28 -42 83 -191 83 -226 0 -12 9 -34 21
-49 11 -14 18 -30 15 -35 -8 -12 14 -61 27 -61 5 0 7 -7 3 -15 -6 -17 13 -65
26 -65 5 0 7 -8 3 -19 -3 -10 8 -58 25 -107 16 -49 30 -90 30 -92 0 -6 -134 7
-240 23 -52 8 -169 17 -260 19 -91 2 -220 10 -286 17 -106 11 -133 10 -205 -4
-46 -9 -138 -23 -203 -32 -66 -9 -123 -18 -128 -21 -4 -3 -24 -7 -45 -9 -21
-3 -56 -8 -78 -11 -148 -25 -432 16 -611 87 -110 44 -285 171 -281 204 2 21
153 149 225 191 45 26 211 78 450 140 126 32 182 54 227 87 22 17 22 45 -1
181 -14 82 -19 94 -58 137 -59 65 -116 164 -116 200 0 35 7 51 67 141 64 98
111 134 197 153 161 35 221 38 331 13z m5614 -55 c27 -20 91 -118 91 -139 0
-34 -190 -57 -253 -31 -20 9 -40 23 -43 32 -11 28 5 64 31 71 19 5 25 13 25
32 0 43 28 65 79 59 24 -3 55 -14 70 -24z m-529 -30 c35 -24 56 -51 80 -102
28 -57 18 -67 -82 -79 -83 -11 -133 -4 -174 23 -35 23 -30 65 11 85 20 10 29
21 27 33 -10 50 84 77 138 40z m-2795 -317 c33 -4 78 -9 100 -12 22 -3 57 -7
78 -8 21 -2 40 -5 42 -8 3 -2 -2 -29 -11 -58 -20 -68 -113 -166 -148 -155
-132 41 -174 47 -267 42 l-96 -6 -7 67 c-3 37 -9 79 -12 94 -5 24 -2 29 22 39
48 18 115 25 179 18 33 -4 87 -10 120 -13z m2526 -68 c38 -25 106 -145 91
-160 -15 -15 -148 -31 -196 -24 -59 9 -98 40 -94 75 2 20 11 28 36 36 28 8 32
13 27 33 -15 59 70 83 136 40z m-289 -459 c8 -7 31 -23 51 -34 34 -18 56 -49
44 -61 -13 -14 -155 -35 -193 -29 -52 7 -94 39 -94 70 0 27 15 41 52 50 24 6
26 10 17 27 -18 33 8 39 61 14 26 -12 54 -29 62 -37z m224 -309 c16 -6 39 -25
50 -43 l22 -33 -46 -63 -45 -63 -45 5 c-52 6 -96 35 -100 67 -4 28 21 50 55
50 20 0 22 4 17 30 -11 53 26 73 92 50z m-527 -25 c38 -19 79 -70 103 -125 18
-41 18 -45 2 -57 -22 -16 -111 -26 -184 -21 -45 3 -66 10 -85 28 -42 39 -31
81 26 95 21 5 25 11 21 36 -2 16 1 36 8 44 16 19 73 19 109 0z m1938 -285 c17
-10 37 -28 42 -39 18 -32 24 -104 12 -135 l-11 -28 -83 4 c-87 5 -139 24 -157
58 -15 28 4 59 40 67 26 5 28 8 23 34 -3 17 0 35 7 44 18 21 89 19 127 -5z
m-557 -48 c13 -8 33 -25 43 -36 27 -31 68 -116 62 -126 -10 -16 -117 -32 -186
-28 -55 3 -73 8 -94 28 -14 13 -25 31 -25 41 0 21 36 49 62 49 21 0 22 4 8 30
-30 57 60 86 130 42z m-1112 -62 c18 -11 35 -27 38 -35 3 -8 -17 -50 -47 -95
-51 -76 -55 -80 -90 -80 -26 0 -47 8 -69 26 -26 22 -31 33 -28 63 3 31 8 37
35 45 28 9 31 13 26 38 -3 16 0 34 7 43 18 22 89 19 128 -5z m631 -74 c18 -31
31 -59 28 -62 -17 -18 -187 -34 -187 -18 0 16 104 144 114 141 6 -2 26 -29 45
-61z m-1155 -26 c24 -22 58 -67 75 -100 l32 -60 -26 -10 c-96 -36 -162 -36
-209 1 -38 30 -36 77 3 92 l28 10 -19 33 c-26 45 -12 74 38 74 26 0 45 -9 78
-40z m1911 -213 c33 -16 55 -39 55 -58 0 -13 -28 -32 -92 -66 -51 -26 -105
-60 -120 -76 -20 -21 -28 -25 -28 -13 0 9 5 16 11 16 7 0 5 10 -6 26 -23 35
-13 72 23 80 40 10 43 13 31 35 -31 59 49 95 126 56z m-567 -46 c43 -22 60
-40 96 -102 34 -60 34 -86 -1 -93 -165 -34 -248 -24 -279 36 -14 27 -14 32 0
53 9 13 26 25 38 27 19 2 22 8 20 32 -7 61 54 84 126 47z m-460 -176 c23 -38
42 -72 42 -76 0 -11 -78 -39 -126 -46 -53 -7 -53 -6 -18 96 14 42 27 82 30 89
8 25 29 6 72 -63z m-2184 -712 c48 -48 96 -128 96 -159 0 -10 7 -25 15 -34 20
-22 34 -100 26 -147 l-7 -38 -7 52 c-6 40 -12 53 -29 59 -16 5 -18 8 -7 15 11
8 9 14 -12 32 -14 12 -29 30 -32 40 -4 10 -25 26 -47 34 -22 9 -40 22 -40 28
0 7 -9 15 -19 18 -17 4 -19 13 -16 65 5 98 13 101 79 35z"/>
<path d="M18522 4733 c5 -13 202 -271 288 -378 44 -55 99 -125 122 -155 24
-30 66 -83 93 -116 103 -127 159 -196 172 -212 10 -14 12 66 13 426 l0 442
-346 0 c-190 0 -344 -3 -342 -7z"/>
<path d="M13570 4251 c-19 -10 -36 -25 -38 -34 -2 -9 11 -35 29 -59 84 -111
176 -132 140 -31 -11 29 -10 37 3 52 22 24 20 38 -9 66 -30 30 -76 33 -125 6z"/>
<path d="M15665 4148 c-27 -5 -54 -13 -58 -17 -5 -5 9 -27 31 -50 34 -35 45
-41 81 -41 26 0 40 4 36 10 -12 20 6 49 33 52 39 4 40 33 1 47 -37 13 -54 13
-124 -1z"/>
<path d="M17923 4083 c-12 -2 -28 -17 -34 -33 -9 -18 -18 -26 -28 -22 -8 3 5
-20 29 -51 25 -31 48 -57 53 -57 4 0 15 16 23 35 8 20 21 38 28 41 8 3 20 19
26 35 21 50 -13 68 -97 52z"/>
<path d="M7070 3907 l0 -104 33 -1 c53 -1 73 6 85 33 16 36 15 66 -4 94 -14
20 -23 22 -55 18 -39 -5 -39 -5 -39 29 0 19 -4 34 -10 34 -6 0 -10 -41 -10
-103z"/>
<path d="M16414 3910 c-28 -4 -59 -12 -67 -17 -15 -8 -15 -12 3 -40 23 -38 71
-65 108 -61 22 2 26 8 27 33 0 25 5 31 29 35 53 9 41 43 -19 53 -16 2 -53 1
-81 -3z"/>
<path d="M493 3795 c-19 -19 -42 -35 -50 -35 -8 0 -28 -14 -45 -30 -27 -27
-30 -36 -25 -71 9 -67 46 -93 162 -116 82 -15 95 -12 95 22 0 13 5 55 12 92
14 84 4 119 -42 151 -45 30 -66 28 -107 -13z"/>
<path d="M15343 3773 c9 -52 36 -85 85 -102 33 -12 43 -13 56 -2 37 31 2 111
-48 111 -13 0 -40 7 -61 16 l-38 15 6 -38z"/>
<path d="M14966 3765 c-22 -7 -48 -22 -59 -33 -18 -19 -19 -20 -1 -48 66 -104
135 -156 180 -135 27 12 30 36 12 77 -10 22 -10 28 0 32 42 14 30 82 -19 108
-34 17 -63 17 -113 -1z"/>
<path d="M17107 3657 l-37 -12 26 -38 c27 -40 75 -67 119 -67 25 0 35 23 15
35 -18 11 9 45 35 45 29 0 41 16 25 35 -15 18 -127 19 -183 2z"/>
<path d="M16074 3519 c10 -64 60 -112 118 -113 40 -1 43 1 46 28 2 16 -2 39
-9 52 -6 12 -9 29 -6 37 3 9 -2 19 -11 23 -23 10 -92 12 -86 2 7 -12 -14 -10
-38 3 -20 11 -21 10 -14 -32z"/>
<path d="M15663 3495 c-29 -13 -53 -29 -53 -35 0 -16 49 -91 83 -127 34 -36
86 -58 117 -48 28 9 36 49 16 80 -15 23 -15 25 4 35 29 15 26 65 -5 95 -32 33
-92 33 -162 0z"/>
<path d="M16885 3315 c-5 -2 -22 -6 -37 -9 -33 -7 -35 -27 -12 -86 17 -43 55
-76 103 -90 56 -16 91 37 57 86 -18 26 -9 41 28 46 77 9 6 59 -81 57 -26 0
-52 -2 -58 -4z"/>
<path d="M4385 3290 c3 -5 17 -10 31 -10 l24 0 0 -245 0 -246 -32 -14 c-30
-13 -12 -14 185 -15 l217 0 0 71 c0 44 -4 68 -10 64 -5 -3 -10 -18 -10 -31 0
-15 -12 -38 -28 -54 -24 -24 -39 -29 -105 -35 -42 -4 -83 -5 -92 -1 -12 4 -15
28 -15 136 l0 130 54 0 c61 0 74 -10 83 -64 12 -77 23 -42 22 71 0 120 -1 121
-30 45 -10 -27 -51 -44 -93 -40 l-31 3 -3 113 -3 112 74 0 c92 0 135 -24 154
-85 12 -39 12 -39 10 30 l-2 70 -203 3 c-137 2 -201 -1 -197 -8z"/>
<path d="M7150 3290 c0 -5 11 -10 25 -10 l25 0 0 -245 0 -246 -32 -14 c-30
-13 -12 -14 185 -15 l217 0 -1 78 0 77 -18 -53 c-10 -29 -27 -59 -37 -66 -17
-13 -102 -26 -165 -26 l-29 0 0 135 0 135 49 0 c40 0 53 -4 65 -22 9 -12 16
-32 16 -43 0 -11 5 -27 10 -35 7 -10 9 24 9 105 l-1 120 -16 -50 c-18 -52 -33
-62 -99 -64 l-33 -1 0 116 0 116 81 -4 c77 -3 82 -5 110 -36 16 -18 29 -41 29
-52 0 -10 5 -22 12 -26 8 -5 9 2 5 26 -4 18 -7 50 -7 71 l0 39 -200 0 c-127 0
-200 -4 -200 -10z"/>
<path d="M8174 3281 c-55 -33 -74 -67 -74 -130 0 -38 6 -66 20 -88 18 -30 38
-45 168 -127 53 -33 67 -65 48 -110 -40 -96 -196 -56 -228 59 -13 48 -15 42
-21 -59 -4 -75 -3 -78 12 -57 16 21 18 21 60 6 140 -49 271 18 271 138 0 79
-32 114 -182 200 -57 33 -78 61 -78 103 0 37 24 61 68 70 50 10 89 -12 123
-70 l29 -51 0 69 c0 60 -2 67 -15 56 -12 -10 -21 -10 -41 -1 -39 18 -125 14
-160 -8z"/>
<path d="M9715 3283 c-4 -10 -33 -90 -65 -178 -115 -319 -117 -322 -153 -331
l-32 -8 43 -3 c23 -3 59 -2 80 0 l37 3 -32 8 c-18 5 -33 13 -33 18 0 5 10 38
23 74 l22 65 75 -3 74 -3 22 -70 c12 -38 20 -72 19 -74 -2 -2 -19 -7 -37 -10
-20 -5 20 -8 100 -9 75 0 132 3 132 9 0 5 -13 9 -30 9 -37 0 -35 -4 -145 285
-48 127 -88 231 -90 233 -1 2 -6 -5 -10 -15z"/>
<path d="M10060 3288 c0 -4 14 -8 32 -10 30 -3 36 -11 100 -135 l68 -132 0
-115 0 -114 -37 -9 c-29 -7 -5 -9 97 -9 104 0 126 2 97 9 l-39 9 4 127 3 126
60 120 c53 106 63 121 90 126 24 5 21 7 -20 8 -27 1 -60 4 -72 7 -14 4 -23 2
-23 -5 0 -6 11 -11 25 -11 14 0 25 -4 25 -10 0 -9 -71 -175 -92 -214 -10 -18
-17 -8 -64 85 -29 57 -53 111 -53 121 -1 10 12 19 37 26 29 7 6 9 -100 8 -76
0 -138 -4 -138 -8z"/>
<path d="M2619 3281 c34 -6 35 -8 92 -156 32 -82 75 -198 96 -257 21 -60 41
-108 44 -108 3 0 43 107 88 238 46 130 89 247 97 259 7 12 26 24 41 26 16 2
-10 4 -57 4 -47 0 -70 -2 -52 -4 26 -4 32 -9 32 -28 0 -28 -85 -284 -98 -297
-6 -6 -20 20 -36 64 -72 200 -85 243 -78 249 4 4 21 9 37 12 17 2 -31 4 -105
4 -74 0 -120 -2 -101 -6z"/>
<path d="M3345 3043 c-50 -135 -97 -250 -105 -254 -8 -4 -24 -11 -35 -15 -15
-7 -10 -9 23 -12 23 -2 59 -1 80 1 l37 3 -32 8 c-39 10 -39 13 -12 94 l21 62
73 0 73 0 22 -65 c25 -75 22 -92 -17 -97 -15 -2 29 -4 100 -5 71 -1 127 3 127
8 0 5 -11 9 -25 9 -15 0 -30 9 -38 23 -8 12 -54 127 -102 255 -49 127 -91 232
-94 232 -4 0 -47 -111 -96 -247z"/>
<path d="M3855 3281 l30 -6 3 -242 2 -243 -32 -14 c-30 -13 -14 -14 175 -15
l207 -1 0 38 c0 20 3 55 5 77 6 42 0 35 -25 -33 -17 -45 -55 -62 -138 -62
l-69 0 -7 77 c-8 103 -7 395 2 409 4 7 18 14 32 17 14 2 -29 4 -95 4 -66 1
-106 -2 -90 -6z"/>
<path d="M4948 3280 c18 -4 42 -16 52 -25 19 -17 20 -32 20 -242 0 -170 -3
-225 -12 -227 -7 -3 -26 -7 -42 -11 -50 -11 -23 -15 44 -6 36 5 57 9 48 10
-17 1 -18 18 -18 198 0 108 4 193 8 188 5 -6 24 -30 42 -55 61 -80 183 -233
235 -294 l50 -60 5 260 5 259 30 6 c18 4 -3 6 -50 6 -44 0 -63 -2 -42 -4 l37
-4 0 -160 c0 -87 -2 -159 -5 -159 -2 0 -61 74 -131 165 l-128 165 -90 -1 c-67
-1 -82 -3 -58 -9z"/>
<path d="M5576 3274 c-3 -9 -6 -43 -5 -77 0 -34 3 -55 5 -47 35 107 40 113
112 125 l42 7 0 -251 0 -251 -27 -6 c-16 -3 -32 -7 -38 -9 -5 -1 50 -2 123 -2
72 0 132 3 132 8 0 4 -15 9 -32 11 l-33 3 -3 249 -2 248 47 -6 c54 -8 90 -39
100 -87 9 -46 27 -49 20 -3 -4 21 -7 54 -7 72 l0 32 -214 0 c-186 0 -215 -2
-220 -16z"/>
<path d="M6175 3281 l30 -6 3 -215 c4 -264 2 -277 -41 -288 -22 -6 7 -8 91 -8
109 1 120 2 93 14 l-31 12 0 244 0 245 28 4 c15 2 -25 4 -88 4 -63 0 -101 -2
-85 -6z"/>
<path d="M6513 3281 c70 -14 72 -18 75 -238 2 -108 1 -211 -3 -230 -5 -28 -10
-33 -35 -33 -16 0 -32 -5 -36 -12 -5 -8 0 -9 17 -5 13 4 44 7 69 7 37 1 41 3
23 10 -23 9 -23 11 -22 202 l0 193 28 -35 c16 -19 91 -113 166 -207 76 -95
141 -173 146 -173 5 0 9 117 9 259 l0 260 33 4 c17 2 -4 4 -48 4 -51 0 -67 -2
-45 -6 l35 -6 3 -164 c1 -91 -1 -162 -5 -157 -4 4 -64 80 -133 169 l-125 162
-95 2 c-67 1 -84 -1 -57 -6z"/>
<path d="M8835 3281 l30 -6 3 -246 2 -246 -32 -11 c-26 -9 -1 -11 127 -8 171
4 206 12 272 62 18 14 45 49 60 77 21 43 26 66 27 127 0 65 -5 83 -30 129 -56
103 -131 132 -343 130 -80 -1 -132 -4 -116 -8z m258 -15 c18 -7 42 -24 53 -37
42 -47 61 -166 44 -274 -18 -114 -58 -164 -141 -180 -67 -12 -69 -4 -69 246 0
133 4 228 10 240 13 23 56 25 103 5z"/>
<path d="M16465 3253 c-48 -12 -115 -47 -115 -60 0 -20 50 -90 93 -132 46 -44
119 -56 137 -22 9 17 8 28 -5 53 -14 28 -14 33 0 40 8 5 20 18 26 29 14 27
-11 66 -56 85 -35 14 -45 15 -80 7z"/>
<path d="M16320 2571 c-38 -19 -80 -73 -80 -101 0 -23 -26 -44 -85 -66 -104
-39 -168 -137 -146 -222 19 -69 83 -112 203 -137 195 -42 390 -37 437 9 80 80
-48 453 -179 521 -40 20 -108 19 -150 -4z"/>
<path d="M470 2505 c-89 -71 -110 -102 -110 -157 0 -64 23 -88 85 -88 25 0 65
-5 89 -12 53 -14 86 -3 112 37 25 39 11 129 -26 167 -16 15 -38 44 -50 63 -12
19 -27 35 -33 34 -7 0 -37 -20 -67 -44z"/>
<path d="M7120 2253 c-6 -32 -18 -86 -26 -121 -17 -79 -17 -82 1 -82 8 0 15 5
15 10 0 7 6 7 19 0 33 -17 61 -11 92 19 24 25 29 38 29 78 0 27 -5 54 -12 61
-15 15 -53 15 -80 1 -18 -9 -20 -9 -15 4 3 9 9 32 13 51 5 29 3 36 -9 36 -11
0 -19 -17 -27 -57z"/>
<path d="M1521 2209 c-12 -11 -24 -34 -28 -50 -3 -16 -14 -34 -25 -40 -28 -15
-49 -70 -39 -105 9 -34 63 -74 99 -74 14 0 51 6 81 14 31 8 69 18 85 21 24 5
27 9 21 28 -4 12 -13 50 -21 85 -18 78 -38 111 -81 128 -45 19 -65 18 -92 -7z"/>
<path d="M3717 2219 c-45 -26 -61 -115 -27 -149 52 -52 140 2 140 87 0 61 -59
93 -113 62z"/>
<path d="M4126 2207 c-34 -34 -43 -93 -18 -126 24 -33 70 -39 103 -12 32 26
16 40 -21 18 -28 -17 -30 -17 -50 3 -33 33 -20 45 48 48 61 3 62 3 62 32 0 16
-7 36 -16 44 -24 24 -81 20 -108 -7z"/>
<path d="M5387 2219 c-22 -13 -47 -68 -47 -104 0 -64 80 -86 131 -36 23 24 29
38 29 74 0 30 -6 49 -18 60 -21 19 -68 22 -95 6z"/>
<path d="M6091 2168 c-6 -35 -14 -75 -18 -90 -4 -21 -1 -28 9 -28 11 0 19 20
28 62 13 61 41 103 63 95 14 -4 16 -75 3 -124 -6 -26 -4 -33 7 -33 9 0 18 13
22 33 16 80 27 107 47 118 15 8 23 8 34 -3 13 -13 12 -23 -11 -125 -6 -28 21
-32 29 -5 20 71 27 134 16 147 -15 18 -61 20 -78 3 -9 -9 -15 -9 -24 0 -7 7
-24 12 -38 12 -14 0 -31 -5 -38 -12 -9 -9 -12 -9 -12 0 0 7 -6 12 -13 12 -9 0
-18 -23 -26 -62z"/>
<path d="M6426 2199 c-49 -58 -28 -149 36 -149 57 0 105 64 94 126 -12 62 -86
75 -130 23z"/>
<path d="M7355 2207 c-34 -29 -45 -96 -21 -132 22 -33 66 -33 103 0 31 27 16
34 -22 9 -31 -20 -65 -4 -65 31 0 24 3 25 60 25 l60 0 0 33 c0 18 -5 38 -12
45 -20 20 -74 14 -103 -11z"/>
<path d="M7578 2219 c-10 -5 -18 -17 -18 -24 0 -20 26 -19 34 1 9 24 60 14 64
-12 3 -18 -3 -22 -43 -26 -25 -3 -55 -14 -65 -23 -48 -43 -2 -102 60 -78 21 8
30 8 33 0 8 -25 25 7 36 73 10 56 10 74 1 85 -14 17 -76 19 -102 4z"/>
<path d="M9226 2205 c-35 -37 -42 -92 -18 -124 48 -64 142 -17 142 72 0 53
-22 77 -69 77 -21 0 -40 -8 -55 -25z"/>
<path d="M1402 1513 c-90 -31 -182 -112 -230 -200 -92 -175 -162 -383 -162
-487 0 -44 4 -53 43 -91 31 -30 62 -49 117 -68 148 -51 216 -62 371 -62 l146
0 78 40 c155 79 194 126 202 245 5 65 5 65 -52 149 -31 47 -71 101 -89 121
-25 28 -35 49 -40 91 -10 77 -70 193 -120 233 -80 62 -147 70 -264 29z"/>
<path d="M4590 1180 l0 -300 2005 0 2005 0 0 300 0 300 -2005 0 -2005 0 0
-300z m901 94 c23 -21 25 -71 2 -96 -9 -10 -30 -18 -49 -18 -28 0 -33 -4 -36
-27 -2 -20 -9 -29 -25 -31 -22 -3 -23 -1 -23 91 0 51 3 97 8 101 12 13 103 -2
123 -20z m562 15 c36 -19 49 -49 22 -49 -8 0 -24 5 -34 12 -22 13 -51 5 -51
-15 0 -9 18 -19 45 -26 51 -13 70 -37 56 -74 -11 -28 -29 -37 -77 -37 -33 0
-74 28 -74 50 0 15 27 12 54 -5 26 -17 56 -11 56 11 0 15 -6 18 -52 28 -38 9
-63 48 -48 76 19 35 66 48 103 29z m220 -22 c23 -27 8 -34 -34 -17 -26 11 -33
11 -46 -3 -18 -18 -21 -16 52 -39 33 -11 41 -18 43 -41 5 -40 -22 -67 -67 -67
-40 0 -81 23 -81 46 0 18 27 18 46 -1 17 -17 33 -19 53 -6 24 15 5 38 -38 45
-31 5 -44 13 -53 32 -30 66 76 110 125 51z m1216 -4 c21 -24 22 -28 8 -31 -9
-2 -27 4 -39 12 -29 20 -52 20 -72 0 -19 -18 -21 -75 -4 -92 17 -17 63 -15 78
3 11 13 8 15 -14 15 -19 0 -26 5 -26 20 0 17 7 20 45 20 43 0 45 -1 45 -30 0
-88 -134 -110 -175 -29 -28 53 -2 120 55 142 28 11 75 -3 99 -30z m678 16 c7
-6 13 -18 13 -25 0 -16 -36 -19 -45 -4 -8 14 -42 13 -51 -2 -9 -14 23 -38 52
-38 48 0 70 -55 37 -92 -32 -36 -133 -15 -133 29 0 18 28 17 46 -2 17 -17 33
-19 53 -6 22 14 5 41 -26 41 -54 0 -91 48 -65 86 22 33 86 40 119 13z m-3067
-4 c0 -10 -11 -15 -35 -15 -28 0 -35 -4 -35 -19 0 -15 8 -21 33 -23 20 -2 32
-8 32 -18 0 -10 -12 -16 -32 -18 -25 -2 -33 -8 -33 -23 0 -15 7 -19 35 -19 29
0 35 -4 35 -20 0 -19 -5 -21 -57 -18 l-58 3 -3 93 -3 92 61 0 c47 0 60 -3 60
-15z m112 -10 c6 -14 15 -25 20 -25 5 0 14 11 20 25 7 16 19 25 35 25 29 0 29
-2 -3 -50 l-26 -39 31 -45 c37 -53 37 -56 8 -56 -16 0 -29 11 -44 37 l-21 37
-22 -37 c-16 -27 -29 -37 -47 -37 -28 0 -31 -8 24 76 18 28 18 26 -25 92 -14
21 -13 22 12 22 18 0 30 -8 38 -25z m480 8 c22 -20 24 -76 3 -93 -13 -11 -12
-16 5 -40 25 -35 25 -40 1 -40 -11 0 -29 14 -41 30 -27 37 -48 38 -52 3 -2
-20 -9 -28 -23 -28 -18 0 -20 8 -23 93 l-3 92 57 0 c39 0 63 -5 76 -17z m198
2 c0 -10 -11 -15 -35 -15 -28 0 -35 -4 -35 -19 0 -15 8 -21 33 -23 20 -2 32
-8 32 -18 0 -10 -12 -16 -32 -18 -25 -2 -33 -8 -33 -23 0 -15 7 -19 35 -19 29
0 35 -4 35 -20 0 -19 -5 -21 -57 -18 l-58 3 -3 93 -3 92 61 0 c47 0 60 -3 60
-15z m579 -37 c8 -27 17 -48 21 -48 4 0 13 21 21 47 8 25 19 48 25 50 6 2 18
-23 29 -54 l18 -58 19 58 c16 47 24 57 43 57 l23 0 -19 -52 c-11 -29 -27 -72
-35 -95 -19 -53 -39 -55 -54 -5 -18 56 -26 58 -42 10 -24 -70 -42 -61 -73 34
-16 46 -30 89 -33 96 -3 10 2 13 19 10 19 -2 27 -13 38 -50z m601 17 c0 -33 2
-35 35 -35 33 0 35 2 35 35 0 28 4 35 20 35 19 0 20 -7 20 -95 0 -88 -1 -95
-20 -95 -17 0 -20 7 -20 40 0 39 -1 40 -34 40 -33 0 -35 -2 -38 -37 -2 -30 -7
-38 -23 -38 -18 0 -20 8 -23 93 l-3 92 26 0 c22 0 25 -4 25 -35z"/>
<path d="M480 1460 c-8 -6 -32 -8 -52 -4 -38 6 -74 -7 -95 -35 -20 -25 -16
-102 7 -136 22 -33 129 -125 145 -125 10 1 72 81 112 148 32 52 30 97 -6 133
-31 30 -81 39 -111 19z"/>
<path d="M10277 1280 c-14 -11 -32 -20 -40 -20 -25 0 -50 -37 -43 -64 9 -36
40 -62 91 -76 52 -15 61 -10 69 32 19 90 18 106 -3 127 -26 26 -41 26 -74 1z"/>
<path d="M9500 1050 c-19 -10 -43 -21 -53 -24 -32 -10 -41 -49 -22 -90 19 -40
81 -79 118 -74 30 4 58 58 59 114 0 40 -4 51 -26 71 -32 27 -31 27 -76 3z"/>
<path d="M9820 678 c-25 -56 -25 -103 0 -128 41 -41 148 -12 170 46 12 30 9
36 -39 85 -30 31 -38 35 -55 25 -14 -8 -20 -8 -23 2 -9 25 -35 11 -53 -30z"/>
<path d="M19190 194 c-8 -8 -51 -43 -96 -77 -44 -34 -96 -74 -115 -89 l-34
-27 133 -1 132 0 0 105 c0 58 -1 105 -2 104 -2 0 -10 -7 -18 -15z"/>
</g>
</svg>
